<mxfile host="app.diagrams.net" modified="2023-12-28T14:47:17.808Z" agent="Mozilla/5.0 (Windows NT 10.0; Win64; x64) AppleWebKit/537.36 (KHTML, like Gecko) Chrome/120.0.0.0 Safari/537.36 Edg/120.0.0.0" etag="vQaF4k3kyXYCQOo0y5Ru" version="22.1.15" type="github">
  <diagram name="第 1 页" id="S8UlN0PGw59GKAXJ4Ia_">
    <mxGraphModel dx="1042" dy="535" grid="1" gridSize="10" guides="1" tooltips="1" connect="1" arrows="1" fold="1" page="1" pageScale="1" pageWidth="827" pageHeight="1169" math="0" shadow="0">
      <root>
        <mxCell id="0" />
        <mxCell id="1" parent="0" />
        <mxCell id="tIm_9evT8lw_4lGu_fnM-1" value="商家" style="shape=umlActor;verticalLabelPosition=bottom;verticalAlign=top;html=1;outlineConnect=0;" parent="1" vertex="1">
          <mxGeometry x="70" y="120" width="30" height="60" as="geometry" />
        </mxCell>
        <mxCell id="tIm_9evT8lw_4lGu_fnM-4" value="店鋪信息管理" style="rounded=0;whiteSpace=wrap;html=1;fillColor=#fff2cc;strokeColor=#f93310;" parent="1" vertex="1">
          <mxGeometry x="595" y="70" width="90" height="40" as="geometry" />
        </mxCell>
        <mxCell id="tIm_9evT8lw_4lGu_fnM-6" value="訂單核對" style="rounded=0;whiteSpace=wrap;html=1;fillColor=#fff2cc;strokeColor=#f93310;" parent="1" vertex="1">
          <mxGeometry x="60" y="340" width="75" height="40" as="geometry" />
        </mxCell>
        <mxCell id="tIm_9evT8lw_4lGu_fnM-7" value="店鋪信息數據庫" style="rounded=0;whiteSpace=wrap;html=1;fillColor=#fff2cc;strokeColor=#f93310;" parent="1" vertex="1">
          <mxGeometry x="350" y="430" width="90" height="40" as="geometry" />
        </mxCell>
        <mxCell id="tIm_9evT8lw_4lGu_fnM-8" value="店鋪主頁" style="rounded=0;whiteSpace=wrap;html=1;fillColor=#fff2cc;strokeColor=#f93310;" parent="1" vertex="1">
          <mxGeometry x="610" y="340" width="75" height="40" as="geometry" />
        </mxCell>
        <mxCell id="tIm_9evT8lw_4lGu_fnM-11" value="" style="endArrow=none;html=1;rounded=0;edgeStyle=orthogonalEdgeStyle;strokeColor=#fd1c1c;" parent="1" edge="1">
          <mxGeometry relative="1" as="geometry">
            <mxPoint x="355" y="460" as="sourcePoint" />
            <mxPoint x="435" y="460" as="targetPoint" />
          </mxGeometry>
        </mxCell>
        <mxCell id="tIm_9evT8lw_4lGu_fnM-12" value="" style="endArrow=none;html=1;rounded=0;edgeStyle=orthogonalEdgeStyle;strokeColor=#fd1c1c;" parent="1" edge="1">
          <mxGeometry relative="1" as="geometry">
            <mxPoint x="604.98" y="100" as="sourcePoint" />
            <mxPoint x="674.98" y="100" as="targetPoint" />
            <Array as="points">
              <mxPoint x="674.98" y="100" />
              <mxPoint x="674.98" y="100" />
            </Array>
          </mxGeometry>
        </mxCell>
        <mxCell id="tIm_9evT8lw_4lGu_fnM-15" value="" style="endArrow=none;html=1;rounded=0;edgeStyle=orthogonalEdgeStyle;strokeColor=#fd1c1c;" parent="1" edge="1">
          <mxGeometry relative="1" as="geometry">
            <mxPoint x="68.75" y="370" as="sourcePoint" />
            <mxPoint x="126.25" y="370.5" as="targetPoint" />
          </mxGeometry>
        </mxCell>
        <mxCell id="tIm_9evT8lw_4lGu_fnM-16" value="" style="endArrow=none;html=1;rounded=0;endSize=8;startSize=8;endFill=0;strokeColor=#f10909;entryX=0;entryY=0.5;entryDx=0;entryDy=0;" parent="1" target="tIm_9evT8lw_4lGu_fnM-35" edge="1">
          <mxGeometry width="50" height="50" relative="1" as="geometry">
            <mxPoint x="110" y="140" as="sourcePoint" />
            <mxPoint x="305" y="60" as="targetPoint" />
          </mxGeometry>
        </mxCell>
        <mxCell id="tIm_9evT8lw_4lGu_fnM-17" value="" style="endArrow=none;html=1;rounded=0;endSize=8;startSize=8;endFill=0;strokeColor=#f10909;entryX=0;entryY=0.75;entryDx=0;entryDy=0;" parent="1" target="tIm_9evT8lw_4lGu_fnM-4" edge="1">
          <mxGeometry width="50" height="50" relative="1" as="geometry">
            <mxPoint x="110" y="150" as="sourcePoint" />
            <mxPoint x="420" y="70" as="targetPoint" />
          </mxGeometry>
        </mxCell>
        <mxCell id="tIm_9evT8lw_4lGu_fnM-18" value="" style="endArrow=none;html=1;rounded=0;endSize=8;startSize=8;endFill=0;strokeColor=#f10909;entryX=-0.013;entryY=0.141;entryDx=0;entryDy=0;entryPerimeter=0;" parent="1" target="tIm_9evT8lw_4lGu_fnM-8" edge="1">
          <mxGeometry width="50" height="50" relative="1" as="geometry">
            <mxPoint x="110" y="160" as="sourcePoint" />
            <mxPoint x="590" y="200" as="targetPoint" />
          </mxGeometry>
        </mxCell>
        <mxCell id="tIm_9evT8lw_4lGu_fnM-19" value="" style="endArrow=none;html=1;rounded=0;endSize=8;startSize=8;endFill=0;strokeColor=#f10909;entryX=0;entryY=0.5;entryDx=0;entryDy=0;exitX=1;exitY=0.5;exitDx=0;exitDy=0;" parent="1" source="tIm_9evT8lw_4lGu_fnM-6" target="tIm_9evT8lw_4lGu_fnM-8" edge="1">
          <mxGeometry width="50" height="50" relative="1" as="geometry">
            <mxPoint x="140" y="170" as="sourcePoint" />
            <mxPoint x="590" y="210" as="targetPoint" />
          </mxGeometry>
        </mxCell>
        <mxCell id="tIm_9evT8lw_4lGu_fnM-20" value="" style="endArrow=none;html=1;rounded=0;endSize=8;startSize=8;endFill=0;strokeColor=#f10909;entryX=0.25;entryY=1;entryDx=0;entryDy=0;exitX=0.8;exitY=0;exitDx=0;exitDy=0;exitPerimeter=0;" parent="1" source="tIm_9evT8lw_4lGu_fnM-7" target="tIm_9evT8lw_4lGu_fnM-4" edge="1">
          <mxGeometry width="50" height="50" relative="1" as="geometry">
            <mxPoint x="150" y="180" as="sourcePoint" />
            <mxPoint x="450" y="100" as="targetPoint" />
          </mxGeometry>
        </mxCell>
        <mxCell id="tIm_9evT8lw_4lGu_fnM-21" value="" style="endArrow=none;html=1;rounded=0;endSize=8;startSize=8;endFill=0;strokeColor=#f10909;exitX=0.25;exitY=0;exitDx=0;exitDy=0;" parent="1" source="tIm_9evT8lw_4lGu_fnM-7" edge="1">
          <mxGeometry width="50" height="50" relative="1" as="geometry">
            <mxPoint x="160" y="190" as="sourcePoint" />
            <mxPoint x="110" y="170" as="targetPoint" />
          </mxGeometry>
        </mxCell>
        <mxCell id="tIm_9evT8lw_4lGu_fnM-24" value="4:處理訂單" style="endArrow=open;endSize=6;html=1;rounded=0;labelBackgroundColor=none;strokeColor=#f31616;" parent="1" edge="1">
          <mxGeometry y="10" width="160" relative="1" as="geometry">
            <mxPoint x="440" y="370" as="sourcePoint" />
            <mxPoint x="370" y="370" as="targetPoint" />
            <mxPoint as="offset" />
          </mxGeometry>
        </mxCell>
        <mxCell id="tIm_9evT8lw_4lGu_fnM-25" value="1:申請店鋪" style="endArrow=open;endSize=7;html=1;rounded=0;labelBackgroundColor=none;strokeColor=#f31616;" parent="1" edge="1">
          <mxGeometry x="-0.3793" y="15" width="160" relative="1" as="geometry">
            <mxPoint x="180" y="100" as="sourcePoint" />
            <mxPoint x="230" y="80" as="targetPoint" />
            <mxPoint as="offset" />
          </mxGeometry>
        </mxCell>
        <mxCell id="tIm_9evT8lw_4lGu_fnM-26" value="8:退出" style="endArrow=open;endSize=7;dashed=1;html=1;rounded=0;labelBackgroundColor=none;strokeColor=#f31616;" parent="1" edge="1">
          <mxGeometry x="-0.1538" y="6" width="160" relative="1" as="geometry">
            <mxPoint x="390" y="130" as="sourcePoint" />
            <mxPoint x="340" y="140" as="targetPoint" />
            <mxPoint as="offset" />
          </mxGeometry>
        </mxCell>
        <mxCell id="tIm_9evT8lw_4lGu_fnM-27" value="5:更新店鋪信息" style="endArrow=open;endSize=7;html=1;rounded=0;labelBackgroundColor=none;strokeColor=#f31616;" parent="1" edge="1">
          <mxGeometry y="14" width="160" relative="1" as="geometry">
            <mxPoint x="640" y="250" as="sourcePoint" />
            <mxPoint x="640" y="200" as="targetPoint" />
            <mxPoint as="offset" />
          </mxGeometry>
        </mxCell>
        <mxCell id="tIm_9evT8lw_4lGu_fnM-28" value="3:驗證結果" style="endArrow=open;endSize=7;dashed=1;html=1;rounded=0;labelBackgroundColor=none;strokeColor=#f31616;" parent="1" edge="1">
          <mxGeometry x="0.0345" y="11" width="160" relative="1" as="geometry">
            <mxPoint x="390" y="280" as="sourcePoint" />
            <mxPoint x="340" y="260" as="targetPoint" />
            <mxPoint as="offset" />
          </mxGeometry>
        </mxCell>
        <mxCell id="tIm_9evT8lw_4lGu_fnM-32" value="" style="line;strokeWidth=1;fillColor=none;align=left;verticalAlign=middle;spacingTop=-1;spacingLeft=3;spacingRight=3;rotatable=0;labelPosition=right;points=[];portConstraint=eastwest;strokeColor=inherit;" parent="1" vertex="1">
          <mxGeometry x="65" y="200" width="40" height="8" as="geometry" />
        </mxCell>
        <mxCell id="tIm_9evT8lw_4lGu_fnM-35" value="登錄介面" style="rounded=0;whiteSpace=wrap;html=1;fillColor=#fff2cc;strokeColor=#f93310;" parent="1" vertex="1">
          <mxGeometry x="330" y="40" width="80" height="40" as="geometry" />
        </mxCell>
        <mxCell id="tIm_9evT8lw_4lGu_fnM-36" value="" style="endArrow=none;html=1;rounded=0;edgeStyle=orthogonalEdgeStyle;strokeColor=#fd1c1c;" parent="1" edge="1">
          <mxGeometry relative="1" as="geometry">
            <mxPoint x="335" y="70" as="sourcePoint" />
            <mxPoint x="405" y="70" as="targetPoint" />
          </mxGeometry>
        </mxCell>
        <mxCell id="tIm_9evT8lw_4lGu_fnM-38" value="" style="endArrow=none;html=1;rounded=0;edgeStyle=orthogonalEdgeStyle;strokeColor=#fd1c1c;" parent="1" edge="1">
          <mxGeometry relative="1" as="geometry">
            <mxPoint x="618.75" y="370" as="sourcePoint" />
            <mxPoint x="676.25" y="370.5" as="targetPoint" />
          </mxGeometry>
        </mxCell>
        <mxCell id="tIm_9evT8lw_4lGu_fnM-39" style="edgeStyle=orthogonalEdgeStyle;rounded=0;orthogonalLoop=1;jettySize=auto;html=1;entryX=0.585;entryY=1.001;entryDx=0;entryDy=0;entryPerimeter=0;endArrow=none;endFill=0;strokeColor=#fd1717;" parent="1" source="tIm_9evT8lw_4lGu_fnM-8" target="tIm_9evT8lw_4lGu_fnM-4" edge="1">
          <mxGeometry relative="1" as="geometry" />
        </mxCell>
        <mxCell id="tIm_9evT8lw_4lGu_fnM-40" value="" style="endArrow=none;endFill=0;endSize=12;html=1;rounded=0;exitX=0.75;exitY=0;exitDx=0;exitDy=0;strokeColor=#FF3819;" parent="1" source="tIm_9evT8lw_4lGu_fnM-6" edge="1">
          <mxGeometry width="160" relative="1" as="geometry">
            <mxPoint x="200" y="210" as="sourcePoint" />
            <mxPoint x="350" y="80" as="targetPoint" />
          </mxGeometry>
        </mxCell>
        <mxCell id="tIm_9evT8lw_4lGu_fnM-41" value="" style="endArrow=none;endFill=0;endSize=12;html=1;rounded=0;exitX=0.25;exitY=0;exitDx=0;exitDy=0;strokeColor=#FF3819;entryX=0.819;entryY=1.02;entryDx=0;entryDy=0;entryPerimeter=0;" parent="1" source="tIm_9evT8lw_4lGu_fnM-8" target="tIm_9evT8lw_4lGu_fnM-35" edge="1">
          <mxGeometry width="160" relative="1" as="geometry">
            <mxPoint x="126" y="350" as="sourcePoint" />
            <mxPoint x="360" y="90" as="targetPoint" />
          </mxGeometry>
        </mxCell>
        <mxCell id="tIm_9evT8lw_4lGu_fnM-42" value="" style="endArrow=none;html=1;rounded=0;endSize=8;startSize=8;endFill=0;strokeColor=#f10909;entryX=1;entryY=0.5;entryDx=0;entryDy=0;exitX=0;exitY=0.5;exitDx=0;exitDy=0;" parent="1" source="tIm_9evT8lw_4lGu_fnM-4" target="tIm_9evT8lw_4lGu_fnM-35" edge="1">
          <mxGeometry width="50" height="50" relative="1" as="geometry">
            <mxPoint x="120" y="150" as="sourcePoint" />
            <mxPoint x="340" y="70" as="targetPoint" />
          </mxGeometry>
        </mxCell>
        <mxCell id="tIm_9evT8lw_4lGu_fnM-43" value="2:身分驗證" style="endArrow=open;endSize=7;html=1;rounded=0;labelBackgroundColor=none;strokeColor=#f31616;" parent="1" edge="1">
          <mxGeometry x="-0.1538" y="6" width="160" relative="1" as="geometry">
            <mxPoint x="480" y="160" as="sourcePoint" />
            <mxPoint x="510" y="180" as="targetPoint" />
            <mxPoint as="offset" />
          </mxGeometry>
        </mxCell>
        <mxCell id="tIm_9evT8lw_4lGu_fnM-44" value="7:提交結果顯示" style="endArrow=open;endSize=7;dashed=1;html=1;rounded=0;labelBackgroundColor=none;strokeColor=#f31616;" parent="1" edge="1">
          <mxGeometry x="0.0769" y="25" width="160" relative="1" as="geometry">
            <mxPoint x="500" y="290" as="sourcePoint" />
            <mxPoint x="520" y="260" as="targetPoint" />
            <mxPoint as="offset" />
          </mxGeometry>
        </mxCell>
        <mxCell id="tIm_9evT8lw_4lGu_fnM-45" value="6:提交信息" style="endArrow=open;endSize=7;html=1;rounded=0;labelBackgroundColor=none;strokeColor=#f31616;" parent="1" edge="1">
          <mxGeometry x="0.3846" y="17" width="160" relative="1" as="geometry">
            <mxPoint x="530" y="270" as="sourcePoint" />
            <mxPoint x="510" y="300" as="targetPoint" />
            <mxPoint as="offset" />
          </mxGeometry>
        </mxCell>
      </root>
    </mxGraphModel>
  </diagram>
</mxfile>
